<svg xmlns="http://www.w3.org/2000/svg" width="80" height="80" viewBox="0 0 80 80">
  <g id="giving" transform="translate(0 0)">
    <path id="Path_45" data-name="Path 45" d="M80,40A39.972,39.972,0,0,1,61.272,73.881c-.414.26-1.492-.145-1.916.1A34.743,34.743,0,0,1,43.042,78.86c-.511.032-1.508,1.115-2.024,1.128Q40.51,80,40,80l-.435,0c-.411,0-2.219-3.063-2.627-3.08-6.1-.25-9.821-1.543-14.92-4.229-.7-.371-2.029,1.962-2.707,1.551A40,40,0,1,1,80,40Z" fill="#0a4499"/>
    <path id="Path_46" data-name="Path 46" d="M120.884,90.176A30.708,30.708,0,1,1,90.176,59.468a30.708,30.708,0,0,1,30.708,30.708Z" transform="translate(-50.176 -50.176)" fill="#0956c6"/>
    <path id="Path_47" data-name="Path 47" d="M51.19,133.01,54.3,156.332a39.8,39.8,0,0,1-20.254-5.757l-1.272-17.454a29.582,29.582,0,0,1-3.013-2.77c-2.031-2.1-4.374-4.567-6.381-6.885a15.369,15.369,0,0,0-4.883-3.863,1.417,1.417,0,0,1-.712-.689,2.317,2.317,0,0,1,1.2-3.411,1.551,1.551,0,0,1,.765-.132c2.05-.02,6.65,2.271,10.752,5.29a32.381,32.381,0,0,1-1.791-5.2c-2.025-7.492-3.475-18.483-1.731-18.969S33,106.211,35.025,113.7q.107.4.2.771l.9-.088c-.287-1.559-.536-3.351-.733-5.371-.852-8.717-.42-18.38,1.262-18.544s3.976,9.232,4.828,17.949c.2,2.02.3,3.826.32,5.411l1.059-.1q.007-.345.019-.706c.251-7.759,2.01-18.678,3.743-18.611s2.781,11.095,2.53,18.854q-.034,1.043-.1,1.941c1.737-4.986,3.81-9.1,5.129-8.8,2.063.469,1.5,11.559-.082,19.132-.866,4.146-1.857,6.378-2.915,7.473Z" transform="translate(-14.733 -76.334)" fill="#ffcdbe"/>
    <path id="Path_48" data-name="Path 48" d="M46.939,122.19a2.005,2.005,0,0,1-1.225.32c-1.732-.067-3.084-1.728-2.833-9.487s2.01-18.678,3.743-18.611c.4.015.761.611,1.08,1.614-1.266,3.315-2.336,11.076-2.527,17C44.98,119.084,45.762,121.424,46.939,122.19Zm-9.331-15.018c-.582-5.954-.565-12.349.04-15.857-.344-.57-.679-.873-.993-.842-1.682.164-2.114,9.827-1.262,18.544a53.345,53.345,0,0,0,1.306,8c.887,3.424,3.244,1.442,2.66-.321A45.894,45.894,0,0,1,37.608,107.172Zm-.893,28.1a8.344,8.344,0,0,0-2.583-5.437q-.725-.69-1.521-1.512c-2.6-2.688-5.1-4.783-7.926-7.609-1.522-1.522-7.187-3.676-7.217-3.328a3.084,3.084,0,0,0,.313,1.525,1.417,1.417,0,0,0,.712.689,15.369,15.369,0,0,1,4.883,3.863c2.008,2.318,4.35,4.784,6.381,6.885a29.583,29.583,0,0,0,3.013,2.77l1.272,17.454a39.9,39.9,0,0,0,3.939,2.094ZM30.52,112.947a72.4,72.4,0,0,1-2.51-15.9c-.4-.429-.748-.632-1.031-.553-1.744.486-.294,11.476,1.731,18.969a31.7,31.7,0,0,0,1.845,5.311c1.317,2.744,3.513.337,2.43-1.381A24.7,24.7,0,0,1,30.52,112.947Zm13.3,21.362a9.679,9.679,0,0,0-8.644-10.593.781.781,0,0,0-.158,1.554,8.115,8.115,0,0,1,7.247,8.881.781.781,0,0,0,1.555.158Z" transform="translate(-14.731 -76.334)" fill="#faa68e"/>
    <path id="Path_49" data-name="Path 49" d="M291.451,118.836a1.416,1.416,0,0,1-.71.692,15.368,15.368,0,0,0-4.87,3.879c-2,2.325-4.334,4.8-6.359,6.906a29.562,29.562,0,0,1-3,2.78l-1.19,17.112a39.793,39.793,0,0,1-20.251,6.1l3.023-23.267c-1.062-1.091-2.06-3.32-2.94-7.463-1.606-7.567-2.206-18.655-.145-19.131,1.168-.27,2.941,2.928,4.55,7.127a.292.292,0,0,0,.566-.114q0-.085-.006-.17c-.277-7.758.736-18.789,2.468-18.862s3.527,10.84,3.8,18.6q.005.144.01.286a.484.484,0,0,0,.439.466l.056.005a.484.484,0,0,0,.53-.471q.044-2.185.295-4.892c.823-8.72,3.086-18.124,4.768-17.965s2.146,9.82,1.323,18.54c-.171,1.811-.384,3.438-.629,4.88a.466.466,0,0,0,.911.2q.05-.192.1-.389c2-7.5,6.244-17.715,7.989-17.235s.332,11.475-1.669,18.975a32.391,32.391,0,0,1-1.773,5.2c4.092-3.033,8.684-5.339,10.734-5.326a1.55,1.55,0,0,1,.766.129A2.317,2.317,0,0,1,291.451,118.836Z" transform="translate(-214.049 -76.322)" fill="#ffdecf"/>
    <path id="Path_50" data-name="Path 50" d="M276.69,114.81c-.743,3.043-3.46,2.68-2.711-.3q.1-.4.213-.823c2-7.5,6.244-17.715,7.989-17.235.418.115.655.835.746,1.966-1.984,3.267-4.53,9.951-5.949,15.269q-.156.585-.288,1.126Zm-6.211-6.388c.575-6.087,1.851-12.507,3.141-15.775-.28-1.335-.659-2.145-1.136-2.19-1.682-.159-3.945,9.245-4.768,17.965-.194,2.051-.29,3.881-.3,5.483a1.393,1.393,0,1,0,2.762.19C270.181,112.448,270.278,110.554,270.479,108.422Zm-7.875,4.869c-.207-5.81.309-13.455,1.308-16.959-.429-1.206-.881-1.922-1.329-1.9-1.732.073-2.744,11.1-2.468,18.862.032.9.08,1.713.142,2.451.238,2.822,2.657,1.976,2.491.027C262.685,115.024,262.636,114.2,262.6,113.291Zm-3.281,42.686,2.708-20.843a10.191,10.191,0,0,0-.9-5.638,28.444,28.444,0,0,1-1.837-6.023,77.152,77.152,0,0,1-1.589-14.1c-1.01-1.923-1.97-3.1-2.7-2.929-2.061.476-1.461,11.564.145,19.131.879,4.143,1.878,6.372,2.94,7.463l-3.023,23.267A40.211,40.211,0,0,0,259.323,155.977Zm20.637-33.516a32.091,32.091,0,0,1,11.663-5.728,2.56,2.56,0,0,0-1.383-1.3,1.55,1.55,0,0,0-.766-.129c-2.065-.013-6.71,2.327-10.824,5.392-.4.295-.949,1.326-.517,1.858C278.817,123.4,279.684,122.683,279.959,122.461ZM268.169,134.5a.782.782,0,0,0,.851-.859,8.115,8.115,0,0,1,7.218-8.905.781.781,0,0,0-.163-1.554,9.679,9.679,0,0,0-8.609,10.622A.781.781,0,0,0,268.169,134.5Z" transform="translate(-214.051 -76.322)" fill="#ffbeaa"/>
    <path id="Path_51" data-name="Path 51" d="M282.629,274.387c-1.177,2.312-3.446,4.569-4.978,4.7q-.065.006-.132.006c-.045,0-.089,0-.132-.006-1.532-.128-3.8-2.386-4.978-4.7-1.31-2.572-.773-4.237.722-4.657,1.235-.346,2.736.266,3.96,1.939a.543.543,0,0,0,.857,0c1.223-1.673,2.725-2.285,3.96-1.939C283.4,270.15,283.939,271.815,282.629,274.387Z" transform="translate(-229.219 -227.507)" fill="#ff72c3"/>
    <path id="Path_52" data-name="Path 52" d="M279.509,278.55a3.843,3.843,0,0,1-1.858.871q-.065.006-.132.006c-.045,0-.089,0-.132-.006-1.532-.128-3.8-2.386-4.978-4.7-1.31-2.572-.773-4.237.722-4.657.041-.011.081-.022.123-.031a7.057,7.057,0,0,0,.884,3.033C275.4,275.554,277.727,277.986,279.509,278.55Z" transform="translate(-229.219 -227.843)" fill="#ff50b5"/>
    <path id="Path_53" data-name="Path 53" d="M243.04,71.252c-1.937,3.8-5.671,7.52-8.192,7.731q-.106.01-.217.009t-.217-.009c-2.522-.211-6.255-3.926-8.192-7.731-2.155-4.233-1.272-6.974,1.188-7.663,2.032-.57,4.5.438,6.517,3.19a.894.894,0,0,0,1.41,0c2.013-2.752,4.485-3.76,6.517-3.19C244.313,64.279,245.2,67.02,243.04,71.252Z" transform="translate(-189.844 -53.524)" fill="#ff94d2"/>
    <path id="Path_54" data-name="Path 54" d="M237.905,78.1a6.323,6.323,0,0,1-3.058,1.434q-.106.01-.217.009t-.217-.009c-2.522-.211-6.255-3.926-8.192-7.731-2.155-4.233-1.272-6.974,1.188-7.663q.1-.028.2-.051a11.612,11.612,0,0,0,1.455,4.992C231.148,73.17,234.971,77.172,237.905,78.1Z" transform="translate(-189.843 -54.075)" fill="#ff72c3"/>
    <path id="Path_55" data-name="Path 55" d="M138.885,53.348c-2.716,5.333-7.949,10.541-11.484,10.837q-.149.014-.3.013t-.3-.013c-3.535-.3-8.768-5.5-11.484-10.837-3.021-5.933-1.783-9.775,1.665-10.742,2.848-.8,6.313.614,9.135,4.472a1.253,1.253,0,0,0,1.976,0c2.822-3.858,6.287-5.271,9.135-4.472C140.669,43.573,141.907,47.416,138.885,53.348Zm-10.7-30.7c-1.151,2.261-3.37,4.469-4.869,4.594q-.063.006-.129.006t-.129-.006c-1.5-.125-3.717-2.333-4.869-4.594-1.281-2.515-.756-4.144.706-4.554,1.207-.339,2.676.26,3.873,1.9a.531.531,0,0,0,.838,0c1.2-1.636,2.665-2.235,3.873-1.9C128.945,18.5,129.47,20.13,128.189,22.645Z" transform="translate(-95.848 -15.187)" fill="#fb5858"/>
    <path id="Path_56" data-name="Path 56" d="M131.689,62.5a8.865,8.865,0,0,1-4.287,2.01q-.149.014-.3.013t-.3-.013c-3.535-.3-8.768-5.5-11.484-10.837-3.021-5.933-1.783-9.775,1.665-10.742q.14-.039.283-.072a16.275,16.275,0,0,0,2.04,7C122.217,55.593,127.576,61.2,131.689,62.5Zm-6.551-35.788a3.76,3.76,0,0,1-1.818.852q-.063.006-.129.006t-.129-.006c-1.5-.125-3.717-2.333-4.869-4.594-1.281-2.515-.756-4.144.706-4.554q.06-.017.12-.03a6.9,6.9,0,0,0,.865,2.966C121.122,23.786,123.394,26.165,125.138,26.717Z" transform="translate(-95.848 -15.517)" fill="#f44545"/>
    <path id="Path_57" data-name="Path 57" d="M288.583,25.594a.781.781,0,0,1-.781.781h-1.3v1.3a.781.781,0,0,1-1.562,0v-1.3h-1.3a.781.781,0,0,1,0-1.562h1.3v-1.3a.781.781,0,0,1,1.563,0v1.3h1.3A.781.781,0,0,1,288.583,25.594ZM265.614,15.75h-1.3v-1.3a.781.781,0,0,0-1.562,0v1.3h-1.3a.781.781,0,0,0,0,1.563h1.3v1.3a.781.781,0,0,0,1.563,0v-1.3h1.3a.781.781,0,0,0,0-1.563Z" transform="translate(-219.937 -11.531)" fill="#fff"/>
  </g>
</svg>
