<svg xmlns="http://www.w3.org/2000/svg" width="80" height="80" viewBox="0 0 80 80">
  <g id="hot-food" transform="translate(0 0)">
    <path id="Path_26" data-name="Path 26" d="M65.967,54.064A25.867,25.867,0,0,1,40.618,80q-.309,0-.618,0A40,40,0,1,1,65.967,9.574Z" transform="translate(0 0)" fill="#1380e2"/>
    <path id="Path_27" data-name="Path 27" d="M110.444,109.448A29.362,29.362,0,1,1,81.081,80.086,29.362,29.362,0,0,1,110.444,109.448Z" transform="translate(-43.638 -67.572)" fill="#5596fb"/>
    <path id="Path_28" data-name="Path 28" d="M103.386,200.9a4.907,4.907,0,0,1-9.194,2.389,4.918,4.918,0,0,1-4.177.953,4.9,4.9,0,1,1-3.171-7.186,4.909,4.909,0,0,1,8.565.015,4.907,4.907,0,0,1,7.977,3.828Z" transform="translate(-68.2 -164.154)" fill="#ffb52d"/>
    <path id="Path_29" data-name="Path 29" d="M251.742,47.857a4.229,4.229,0,0,1-3.647,4.189c0,.013,0,.027,0,.04a4.229,4.229,0,1,1-4.811-4.189c0-.013,0-.026,0-.04a4.229,4.229,0,0,1,8.458,0ZM260.8,42.83a4.229,4.229,0,1,0,4.229,4.229A4.229,4.229,0,0,0,260.8,42.83Z" transform="translate(-202.195 -36.137)" fill="#ffb52d"/>
    <path id="Path_30" data-name="Path 30" d="M317.813,45.469a3.906,3.906,0,1,1-3.906-3.906A3.906,3.906,0,0,1,317.813,45.469ZM325.587,40a3.906,3.906,0,1,0,3.906,3.906A3.906,3.906,0,0,0,325.587,40Z" transform="translate(-261.563 -33.75)" fill="#bc4e11"/>
    <path id="Path_31" data-name="Path 31" d="M293.579,69.875a5.471,5.471,0,0,1-9.806-.954,5.469,5.469,0,0,1-8.574-.114,3.908,3.908,0,0,1-5.434,1.608,5.469,5.469,0,1,1,0-6.767,3.908,3.908,0,0,1,4.482.406,5.471,5.471,0,0,1,10.417-.475,5.477,5.477,0,0,1,2.493-1.731A40.177,40.177,0,0,1,293.579,69.875Z" transform="translate(-219.375 -50.625)" fill="#ffc14f"/>
    <path id="Path_32" data-name="Path 32" d="M232.42,156.3H192.681a1.563,1.563,0,0,1,0-3.125H230.35Q231.455,154.684,232.42,156.3Z" transform="translate(-161.257 -129.239)" fill="#c42d2d"/>
    <path id="Path_33" data-name="Path 33" d="M274.008,140.761a40.015,40.015,0,0,1-31.463,39.087c-2.751.6-12.61-6.225-12.61-6.225v-54.2h37.91A39.813,39.813,0,0,1,274.008,140.761Z" transform="translate(-194.009 -100.761)" fill="#f44545"/>
    <path id="Path_34" data-name="Path 34" d="M341.563,140.761a40,40,0,0,1-1.716,11.627,21.88,21.88,0,0,1-25.862-32.967H335.4A39.813,39.813,0,0,1,341.563,140.761Z" transform="translate(-261.563 -100.761)" fill="#fb5858"/>
    <path id="Path_35" data-name="Path 35" d="M128.125,390c-4.562,8.865-11.88,15.484-20.525,18.149a40.367,40.367,0,0,1-17.075,0C81.88,405.484,74.562,398.865,70,390Z" transform="translate(-59.063 -329.062)" fill="#ffd993"/>
    <path id="Path_36" data-name="Path 36" d="M104.531,408.692a40.424,40.424,0,0,1-14.006-.542C81.88,405.484,74.562,398.865,70,390H80.938c4.562,8.865,11.88,15.484,20.525,18.149Q102.976,408.478,104.531,408.692Z" transform="translate(-59.063 -329.062)" fill="#ffcd71"/>
    <path id="Path_37" data-name="Path 37" d="M92.187,383.125H21.563a1.563,1.563,0,0,1,0-3.125H92.187a1.563,1.563,0,0,1,0,3.125Z" transform="translate(-16.875 -320.625)" fill="#ffd993"/>
    <path id="Path_38" data-name="Path 38" d="M212.379,381.563a1.562,1.562,0,0,1-1.562,1.563H169.568a1.563,1.563,0,0,1,0-3.125h41.248A1.562,1.562,0,0,1,212.379,381.563Z" transform="translate(-141.755 -320.625)" fill="#fcf2b6"/>
    <path id="Path_39" data-name="Path 39" d="M252.96,108.115H213.223a1.563,1.563,0,0,1,0-3.125h37.669Q252,106.5,252.96,108.115Z" transform="translate(-178.588 -88.585)" fill="#c42d2d"/>
    <path id="Path_40" data-name="Path 40" d="M85.625,138.631a.781.781,0,0,1-1.562,0,2.346,2.346,0,0,0-2.344-2.344,3.911,3.911,0,0,1-3.906-3.906.781.781,0,0,1,1.563,0,2.346,2.346,0,0,0,2.344,2.344A3.911,3.911,0,0,1,85.625,138.631Zm-11.719-3.906a2.346,2.346,0,0,1-2.344-2.344.781.781,0,0,0-1.562,0,3.911,3.911,0,0,0,3.906,3.906,2.346,2.346,0,0,1,2.344,2.344.781.781,0,0,0,1.563,0A3.911,3.911,0,0,0,73.906,134.725Z" transform="translate(-59.063 -111.037)" fill="#a7d0fc"/>
    <path id="Path_41" data-name="Path 41" d="M119.687,215.469a5.469,5.469,0,0,1-9.8,3.338,3.908,3.908,0,0,1-5.434,1.608,5.469,5.469,0,0,1-8.593,0,3.906,3.906,0,1,1,0-6.767,5.469,5.469,0,0,1,8.593,0,3.908,3.908,0,0,1,4.482.406,5.47,5.47,0,0,1,10.753,1.415Z" transform="translate(-75.938 -177.187)" fill="#ffc14f"/>
    <path id="Path_42" data-name="Path 42" d="M141.888,47.425,104.25,85.063c-3.578,3.995-8.082,6.376-12.976,6.376-7.127,0-13.427-5.049-17.244-12.778a1.092,1.092,0,0,1,.985-1.57H107.8l31.876-31.876a1.562,1.562,0,0,1,2.21,2.21Z" transform="translate(-62.368 -37.764)" fill="#a7d0fc"/>
    <path id="Path_43" data-name="Path 43" d="M95.106,265.295a15.147,15.147,0,0,1-4.677.743c-7.263,0-13.669-5.245-17.461-13.227a.783.783,0,0,1,.7-1.122h8.142C84.74,258.478,89.5,263.482,95.106,265.295Z" transform="translate(-61.502 -212.363)" fill="#86befb"/>
    <path id="Path_44" data-name="Path 44" d="M114.688,241.563A1.563,1.563,0,1,1,113.125,240,1.562,1.562,0,0,1,114.688,241.563Zm3.906,3.906a1.563,1.563,0,1,0,1.563,1.563A1.562,1.562,0,0,0,118.594,245.469Zm-7.031,10.156a1.563,1.563,0,1,0,1.563,1.563A1.562,1.562,0,0,0,111.563,255.625Z" transform="translate(-92.813 -202.5)" fill="#bc4e11"/>
  </g>
</svg>
