<svg xmlns="http://www.w3.org/2000/svg" width="200" height="200" viewBox="0 0 200 200">
  <g id="Group_46" data-name="Group 46" transform="translate(-103 -99)">
    <g id="Rectangle_42" data-name="Rectangle 42" transform="translate(103 199) rotate(-45)" fill="#fff" stroke="#707070" stroke-width="1" opacity="0.1">
      <rect width="141.421" height="141.421" rx="30" stroke="none"/>
      <rect x="0.5" y="0.5" width="140.421" height="140.421" rx="29.5" fill="none"/>
    </g>
    <g id="Group_45" data-name="Group 45" transform="translate(138.998 110.571)">
      <g id="Group_42" data-name="Group 42" transform="translate(16.018)">
        <path id="Path_58" data-name="Path 58" d="M2082.355,1753.022c-18.887,23.673-57.49,24.232-86.223,1.25a81.05,81.05,0,0,1-8.829-8.2c-1.915-2.067-11.164-15.934-5.375-23.493,3.658-4.777,11.066,5.6,19.534,12.3,4.931,3.9,22.115,12.574,29,3.886,3.622-7.885-6.257-17.1-8.524-19.713-8.075-9.3-20.174-17.948-30.321-25-2.413-2.04-6.289-4.826-7.8-6.9-.754-1.04-3.648-5.55-2.575-7.931.611-1.355,2.7-2.793,6.214-2.281,2.662.387,6.85,2.544,7.806,2.974q5.795,2.606,11.37,5.675a119.938,119.938,0,0,1,16.689,11.036,82.5,82.5,0,0,1,14.137,14.186,82.825,82.825,0,0,0-13.748-14.661,120.894,120.894,0,0,0-16.469-11.627,162.07,162.07,0,0,0-17.989-9.159c-2.531-1.1-8.075-5.225-5.457-9.3s13.267-2.3,16.362-1.062a160.283,160.283,0,0,1,18.088,8.524,119.854,119.854,0,0,1,16.69,11.036,82.487,82.487,0,0,1,14.137,14.186,82.8,82.8,0,0,0-13.748-14.661,120.9,120.9,0,0,0-16.469-11.627,158.805,158.805,0,0,0-14.629-7.653,27.723,27.723,0,0,1-5.715-3.2c-2.567-2.2-3.408-4.8-1.94-6.406,5.5-5.079,15.448-2.763,20.3-.559q5.754,2.59,11.292,5.636a119.929,119.929,0,0,1,16.69,11.036,82.535,82.535,0,0,1,14.138,14.186,82.818,82.818,0,0,0-13.749-14.661,120.85,120.85,0,0,0-16.469-11.627q-3.237-1.92-6.568-3.675c-2.479-1.308-3.81-3.886-1.921-3.837,14.87.387,30.659,5.99,44.242,16.856C2093.26,1691.528,2101.241,1729.349,2082.355,1753.022Z" transform="translate(-1980.048 -1651.688)" fill="#fb5858"/>
      </g>
      <g id="Group_43" data-name="Group 43" transform="translate(0 49.12)">
        <path id="Path_59" data-name="Path 59" d="M1836.011,2167.833c25.272-16.665,62.156-5.245,82.383,25.508a81.2,81.2,0,0,1,5.864,10.533c1.183,2.559,5.7,18.61-2.144,24.006-4.954,3.411-8.794-8.753-14.78-17.742-3.485-5.234-17.147-18.8-26.374-12.673-5.879,6.377.669,18.2,2.019,21.385,4.807,11.344,13.642,23.315,21.115,33.162,1.665,2.687,4.491,6.536,5.282,8.98.4,1.222,1.755,6.407,0,8.339-1,1.1-3.427,1.821-6.614.246-2.412-1.193-5.729-4.54-6.5-5.246q-4.706-4.273-9.06-8.917a120.069,120.069,0,0,1-12.463-15.663,82.563,82.563,0,0,1-9.063-17.868,82.913,82.913,0,0,0,8.547,18.2,121.058,121.058,0,0,0,12.071,16.156,162.28,162.28,0,0,0,14.28,14.28c2.067,1.832,6.065,7.469,2.318,10.534s-13.326-1.923-15.889-4.057a160.568,160.568,0,0,1-14.569-13.707,120.072,120.072,0,0,1-12.464-15.662,82.6,82.6,0,0,1-9.063-17.868,82.889,82.889,0,0,0,8.547,18.2,121.031,121.031,0,0,0,12.071,16.157,159.108,159.108,0,0,0,11.548,11.807,27.731,27.731,0,0,1,4.446,4.815c1.762,2.885,1.76,5.618-.133,6.693-6.8,3.127-15.544-2.156-19.481-5.754q-4.673-4.245-9-8.856a120.158,120.158,0,0,1-12.464-15.663,82.624,82.624,0,0,1-9.063-17.868,82.909,82.909,0,0,0,8.547,18.2,121,121,0,0,0,12.072,16.157q2.485,2.828,5.111,5.528c1.954,2.012,2.423,4.875.642,4.244-14.021-4.972-27.306-15.189-36.869-29.728C1806.65,2222.937,1810.74,2184.5,1836.011,2167.833Z" transform="translate(-1814.023 -2160.17)" fill="#ffc14f"/>
      </g>
      <g id="Group_44" data-name="Group 44" transform="translate(16.307 69.381)">
        <path id="Path_60" data-name="Path 60" d="M2033.535,2387.14c-.025.059-.049.119-.076.177-6.881,8.688-24.065.013-29-3.886-8.468-6.7-15.877-17.073-19.535-12.3-5.788,7.559,3.46,21.426,5.375,23.493a81.028,81.028,0,0,0,8.829,8.2,78.35,78.35,0,0,0,25.879,13.8c.481.145-1.416-3.36.481.145a67.657,67.657,0,0,0,21.778,2.893,107.613,107.613,0,0,1-9.355-16.836C2036.91,2400.456,2033.016,2393.281,2033.535,2387.14Z" transform="translate(-1983.048 -2369.919)" fill="#fb5858"/>
      </g>
    </g>
  </g>
</svg>
