<svg id="maps" xmlns="http://www.w3.org/2000/svg" xmlns:xlink="http://www.w3.org/1999/xlink" width="42" height="42" viewBox="0 0 42 42">
  <defs>
    <linearGradient id="linear-gradient" x1="0.816" y1="0.198" x2="0.945" y2="0.069" gradientUnits="objectBoundingBox">
      <stop offset="0" stop-color="#97aaaa"/>
      <stop offset="1" stop-color="#e8efee"/>
    </linearGradient>
    <linearGradient id="linear-gradient-2" x1="0.463" y1="1.05" x2="0.463" y2="0.056" gradientUnits="objectBoundingBox">
      <stop offset="0" stop-color="#fff"/>
      <stop offset="1" stop-color="#e8efee"/>
    </linearGradient>
    <linearGradient id="linear-gradient-3" x1="0.463" y1="-8.126" x2="0.463" y2="-8.812" gradientUnits="objectBoundingBox">
      <stop offset="0" stop-color="#c2cece" stop-opacity="0"/>
      <stop offset="0.179" stop-color="#afbcbc" stop-opacity="0.18"/>
      <stop offset="1" stop-color="#5b6a6a"/>
    </linearGradient>
    <linearGradient id="linear-gradient-4" x1="0.686" y1="0.542" x2="2.046" y2="0.478" xlink:href="#linear-gradient-3"/>
    <linearGradient id="linear-gradient-5" x1="0.463" y1="1.395" x2="0.463" y2="0.035" xlink:href="#linear-gradient-3"/>
    <linearGradient id="linear-gradient-6" x1="0.448" y1="-0.618" x2="0.448" y2="6.349" gradientUnits="objectBoundingBox">
      <stop offset="0" stop-color="#ffcf95"/>
      <stop offset="0.054" stop-color="#fed19a"/>
      <stop offset="1" stop-color="#e8efee"/>
    </linearGradient>
    <linearGradient id="linear-gradient-7" x1="0.31" y1="0.136" x2="0.31" y2="13.359" xlink:href="#linear-gradient-6"/>
    <linearGradient id="linear-gradient-8" x1="0.265" y1="-0.363" x2="0.265" y2="3.734" xlink:href="#linear-gradient-6"/>
    <linearGradient id="linear-gradient-9" x1="0.437" y1="-0.799" x2="0.437" y2="4.042" xlink:href="#linear-gradient-6"/>
    <linearGradient id="linear-gradient-10" x1="0.433" y1="-0.784" x2="0.433" y2="2.142" xlink:href="#linear-gradient-6"/>
    <linearGradient id="linear-gradient-11" x1="0.421" y1="-0.51" x2="0.421" y2="1.966" xlink:href="#linear-gradient-6"/>
    <linearGradient id="linear-gradient-12" x1="0.319" y1="-10.794" x2="0.319" y2="8.55" xlink:href="#linear-gradient-6"/>
    <linearGradient id="linear-gradient-13" x1="-0.127" y1="2.698" x2="1.104" y2="4.528" gradientUnits="objectBoundingBox">
      <stop offset="0" stop-color="#c69c6d" stop-opacity="0"/>
      <stop offset="1" stop-color="#754c24"/>
    </linearGradient>
    <linearGradient id="linear-gradient-14" x1="-0.009" y1="1.063" x2="1.318" y2="2.248" xlink:href="#linear-gradient-13"/>
    <linearGradient id="linear-gradient-15" x1="0.36" y1="0.147" x2="2.064" y2="0.863" xlink:href="#linear-gradient-13"/>
    <linearGradient id="linear-gradient-16" x1="-0.259" y1="-0.268" x2="3.13" y2="0.587" xlink:href="#linear-gradient-13"/>
    <linearGradient id="linear-gradient-17" x1="0.491" y1="-7.777" x2="3.588" y2="-3.041" xlink:href="#linear-gradient-13"/>
    <linearGradient id="linear-gradient-18" x1="0.413" y1="2.327" x2="0.413" y2="1.143" gradientUnits="objectBoundingBox">
      <stop offset="0" stop-color="#c2d600"/>
      <stop offset="1" stop-color="#7bd101"/>
    </linearGradient>
    <linearGradient id="linear-gradient-19" x1="0.189" y1="2.549" x2="0.189" y2="1.695" xlink:href="#linear-gradient-18"/>
    <linearGradient id="linear-gradient-20" x1="0.854" y1="4.282" x2="-0.71" y2="0.753" xlink:href="#linear-gradient-13"/>
    <linearGradient id="linear-gradient-21" x1="0.619" y1="1.757" x2="-2.894" y2="-0.318" xlink:href="#linear-gradient-13"/>
    <linearGradient id="linear-gradient-22" x1="1.233" y1="2.651" x2="-0.884" y2="-0.036" xlink:href="#linear-gradient-13"/>
    <linearGradient id="linear-gradient-23" x1="3.556" y1="4.832" x2="-2.503" y2="-1.084" xlink:href="#linear-gradient-13"/>
    <linearGradient id="linear-gradient-24" x1="0.883" y1="2.108" x2="-0.877" y2="-1.323" xlink:href="#linear-gradient-13"/>
    <linearGradient id="linear-gradient-25" x1="0.682" y1="-0.161" x2="-0.076" y2="0.465" xlink:href="#linear-gradient-13"/>
    <linearGradient id="linear-gradient-26" x1="0.373" y1="0.002" x2="0.373" y2="1.275" gradientUnits="objectBoundingBox">
      <stop offset="0" stop-color="#e05a00"/>
      <stop offset="0.251" stop-color="#db5300"/>
      <stop offset="0.618" stop-color="#cc3f00"/>
      <stop offset="1" stop-color="#b72401"/>
    </linearGradient>
    <linearGradient id="linear-gradient-27" x1="0.365" y1="0.562" x2="0.365" y2="-0.271" xlink:href="#linear-gradient-26"/>
    <radialGradient id="radial-gradient" cx="0.5" cy="0.5" r="0.739" gradientTransform="matrix(1, 0, 0, -1, 0, 0.603)" xlink:href="#linear-gradient-26"/>
    <linearGradient id="linear-gradient-28" x1="-0.064" y1="-2.019" x2="0.304" y2="-2.426" xlink:href="#linear-gradient-2"/>
    <linearGradient id="linear-gradient-29" x1="0.422" y1="-0.215" x2="0.422" y2="-1.036" gradientUnits="objectBoundingBox">
      <stop offset="0" stop-color="#00a6f9"/>
      <stop offset="1" stop-color="#0071e2"/>
    </linearGradient>
  </defs>
  <path id="Path_110" data-name="Path 110" d="M41.962,2.667v37.56a2.2,2.2,0,0,1-2.2,2.2H2.2a2.2,2.2,0,0,1-2.2-2.2V2.667A2.2,2.2,0,0,1,2.2.466h37.56A2.2,2.2,0,0,1,41.962,2.667Z" transform="translate(0 -0.428)" fill="url(#linear-gradient)"/>
  <path id="Path_111" data-name="Path 111" d="M30.883,42.428H2.2a2.2,2.2,0,0,1-2.2-2.2V2.667A2.2,2.2,0,0,1,2.2.466h37.56a2.2,2.2,0,0,1,2.2,2.2V31.925a1.282,1.282,0,0,1-.369.9l-8.585,8.713A2.983,2.983,0,0,1,30.883,42.428Z" transform="translate(0 -0.428)" fill="url(#linear-gradient-2)"/>
  <path id="Path_112" data-name="Path 112" d="M41.963,463.708v1.761a2.2,2.2,0,0,1-2.2,2.2H2.2a2.2,2.2,0,0,1-2.2-2.2v-1.761H41.963Z" transform="translate(-0.001 -425.67)" fill="url(#linear-gradient-3)"/>
  <path id="Path_113" data-name="Path 113" d="M75.486,42.427V72.6l-3.3,3.349H41.96A1.857,1.857,0,0,1,40.1,74.1V42.427a1.857,1.857,0,0,1,1.856-1.856H73.63A1.857,1.857,0,0,1,75.486,42.427Z" transform="translate(-36.814 -37.243)" fill="#fff"/>
  <path id="Path_114" data-name="Path 114" d="M20.928.466H1.975A2.1,2.1,0,0,0,0,2.667v37.56a2.1,2.1,0,0,0,1.974,2.2H20.929C21.048,42.428,20.928.466,20.928.466Z" transform="translate(-0.001 -0.428)" fill="url(#linear-gradient-4)"/>
  <path id="Path_115" data-name="Path 115" d="M42.429,21.22V2a2.108,2.108,0,0,0-2.2-2H2.668a2.108,2.108,0,0,0-2.2,2V21.22C.467,21.342,42.429,21.22,42.429,21.22Z" transform="translate(-0.429)" fill="url(#linear-gradient-5)"/>
  <path id="Path_116" data-name="Path 116" d="M43.561,46.2a8.311,8.311,0,0,1,11.754,0l4.12,4.12,3.2-3.2L56.092,40.57H41.96A1.857,1.857,0,0,0,40.1,42.426v7.228Z" transform="translate(-36.814 -37.242)" fill="url(#linear-gradient-6)"/>
  <path id="Path_117" data-name="Path 117" d="M275.873,44.34l3.77-3.77H269.372l3.77,3.77A1.931,1.931,0,0,0,275.873,44.34Z" transform="translate(-247.275 -37.242)" fill="url(#linear-gradient-7)"/>
  <g id="Group_67" data-name="Group 67" transform="translate(3.29 3.328)">
    <path id="Path_118" data-name="Path 118" d="M359.19,57.146V42.427a1.857,1.857,0,0,0-1.856-1.856h-1.629l-6.545,6.545Z" transform="translate(-323.808 -40.571)" fill="url(#linear-gradient-8)"/>
    <path id="Path_119" data-name="Path 119" d="M63.72,103.781a6.277,6.277,0,0,0-4.468,1.851l-3.59,3.59,8.588,8.588,8.058-8.058-4.121-4.121A6.276,6.276,0,0,0,63.72,103.781Z" transform="translate(-54.386 -98.596)" fill="url(#linear-gradient-9)"/>
    <path id="Path_120" data-name="Path 120" d="M51.868,207.1a3.349,3.349,0,0,1,.6-3.916,1.351,1.351,0,0,0,0-1.91L40.1,188.912V210.27a1.857,1.857,0,0,0,1.856,1.856h4.88Z" transform="translate(-40.105 -176.743)" fill="url(#linear-gradient-10)"/>
    <path id="Path_121" data-name="Path 121" d="M201.646,148.979,190.207,137.54l-12.669,12.669,2.5,2.5a3.347,3.347,0,0,1,0,4.729,1.352,1.352,0,0,0,0,1.91l5.625,5.625h12.689l3.3-3.349v-12.64Z" transform="translate(-166.264 -129.586)" fill="url(#linear-gradient-11)"/>
    <path id="Path_122" data-name="Path 122" d="M163.6,432.612l-3.511-3.511-3.51,3.511Z" transform="translate(-147.021 -397.229)" fill="url(#linear-gradient-12)"/>
  </g>
  <path id="Path_123" data-name="Path 123" d="M148.316,54.467,141.8,47.911a1.166,1.166,0,0,1,0-1.643l5.7-5.7h-2.819l-4.288,4.288a3.163,3.163,0,0,0-.007,4.458l6.515,6.556a1.166,1.166,0,0,1,0,1.643l-10.2,10.2a1.164,1.164,0,0,1-1.646,0,3.161,3.161,0,0,0-4.465,0l-8.237,8.237h2.819L132,69.124a1.165,1.165,0,0,1,1.646,0,3.157,3.157,0,0,0,4.465,0l10.2-10.2A3.163,3.163,0,0,0,148.316,54.467Z" transform="translate(-112.316 -37.242)" fill="#ffb000"/>
  <g id="Group_68" data-name="Group 68" transform="translate(3.29 3.328)">
    <path id="Path_124" data-name="Path 124" d="M57.77,48.651,55.316,46.2a8.313,8.313,0,0,0-11.755,0L40.1,49.655V42.427a1.857,1.857,0,0,1,1.856-1.856H56.094l1.662,1.662C57.76,44.039,57.766,46.237,57.77,48.651Z" transform="translate(-40.105 -40.571)" fill="url(#linear-gradient-13)"/>
    <path id="Path_125" data-name="Path 125" d="M72.062,110l-7.807,7.807-8.588-8.589,3.59-3.59a6.317,6.317,0,0,1,8.935,0l3.869,3.869C72.062,109.668,72.062,109.836,72.062,110Z" transform="translate(-54.391 -98.597)" fill="url(#linear-gradient-14)"/>
    <path id="Path_126" data-name="Path 126" d="M51.868,207.1a3.349,3.349,0,0,1,.6-3.916,1.351,1.351,0,0,0,0-1.91L40.1,188.912V210.27a1.857,1.857,0,0,0,1.856,1.856h4.88Z" transform="translate(-40.105 -176.743)" fill="url(#linear-gradient-15)"/>
    <path id="Path_127" data-name="Path 127" d="M183.953,233.382l-3.915-3.916a1.351,1.351,0,0,1,0-1.909,3.349,3.349,0,0,0,0-4.729l-2.5-2.5,6.4-6.4C183.957,220.976,183.965,228.561,183.953,233.382Z" transform="translate(-166.268 -199.709)" fill="url(#linear-gradient-16)"/>
    <path id="Path_128" data-name="Path 128" d="M163.6,432.612l-3.511-3.511-3.51,3.511Z" transform="translate(-147.021 -397.229)" fill="url(#linear-gradient-17)"/>
  </g>
  <path id="Path_129" data-name="Path 129" d="M82.795,126.834l2.477-2.477a4.744,4.744,0,0,1,6.709,0l3.008,3.008L89.157,133.2Z" transform="translate(-76.003 -112.88)" fill="url(#linear-gradient-18)"/>
  <path id="Path_130" data-name="Path 130" d="M382.759,41.492l-6.469,6.469,7.8,7.8V43.272A1.857,1.857,0,0,0,382.759,41.492Z" transform="translate(-345.423 -38.088)" fill="url(#linear-gradient-19)"/>
  <g id="Group_69" data-name="Group 69" transform="translate(3.29 3.328)">
    <path id="Path_131" data-name="Path 131" d="M43.561,46.2a8.311,8.311,0,0,1,11.754,0l4.12,4.12,3.2-3.2L56.092,40.57H41.96A1.857,1.857,0,0,0,40.1,42.426v7.228Z" transform="translate(-40.104 -40.57)" fill="url(#linear-gradient-20)"/>
    <path id="Path_132" data-name="Path 132" d="M359.19,57.146V42.427a1.857,1.857,0,0,0-1.856-1.856h-1.629l-6.545,6.545Z" transform="translate(-323.808 -40.571)" fill="url(#linear-gradient-21)"/>
    <path id="Path_133" data-name="Path 133" d="M72.314,109.754l-6.827,6.827h-2.46l-7.358-7.359,3.59-3.59a6.317,6.317,0,0,1,8.935,0Z" transform="translate(-54.392 -98.598)" fill="url(#linear-gradient-22)"/>
    <path id="Path_134" data-name="Path 134" d="M45.92,194.732c-2.276,0-4.275,0-5.815-.01v-5.8Z" transform="translate(-40.105 -176.748)" fill="url(#linear-gradient-23)"/>
    <path id="Path_135" data-name="Path 135" d="M229.757,147.534c-4.875.012-12.757.029-20.016.038l10.027-10.027Z" transform="translate(-195.826 -129.59)" fill="url(#linear-gradient-24)"/>
  </g>
  <path id="Path_136" data-name="Path 136" d="M257.645,186.132a7.8,7.8,0,0,0-5.626-2.473,7.911,7.911,0,0,0-7.907,8.129c.113,5.406,3.255,9.434,5.522,11.648l6.782,6.782a2.976,2.976,0,0,0,.677-.514l8.585-8.713a1.283,1.283,0,0,0,.369-.9v-5.555Z" transform="translate(-224.087 -168.592)" fill="url(#linear-gradient-25)"/>
  <path id="Path_137" data-name="Path 137" d="M252.02,183.658a7.911,7.911,0,0,0-7.907,8.129c.134,6.415,4.534,10.891,6.676,12.7a1.786,1.786,0,0,0,2.3,0c2.177-1.834,6.675-6.42,6.675-12.993A7.828,7.828,0,0,0,252.02,183.658Z" transform="translate(-224.087 -168.592)" fill="url(#linear-gradient-26)"/>
  <path id="Path_138" data-name="Path 138" d="M257.041,191.088a7.458,7.458,0,0,0-7.453,7.662c.127,6.047,4.273,10.266,6.292,11.967a1.683,1.683,0,0,0,2.17,0c2.052-1.729,6.292-6.052,6.292-12.248A7.379,7.379,0,0,0,257.041,191.088Z" transform="translate(-229.113 -175.412)" fill="url(#linear-gradient-27)"/>
  <circle id="Ellipse_2" data-name="Ellipse 2" cx="3.73" cy="3.73" r="3.73" transform="translate(24.122 19.164)" fill="url(#radial-gradient)"/>
  <path id="Path_139" data-name="Path 139" d="M386.64,390.376a1.356,1.356,0,0,1-.321.44c-.1.1-8.47,8.6-8.47,8.6a3.155,3.155,0,0,1-2.247.941h0a1.32,1.32,0,0,0,1.32-1.32v-6.456a2.2,2.2,0,0,1,2.2-2.2h7.517Z" transform="translate(-344.791 -358.353)" fill="url(#linear-gradient-28)"/>
  <path id="Path_140" data-name="Path 140" d="M49.921,267.36l-2.511-2.511a1.387,1.387,0,0,1,0-1.96,2.227,2.227,0,0,0,0-3.146l-7.305-7.305v1.187l6.712,6.712a1.387,1.387,0,0,1,0,1.959,2.228,2.228,0,0,0,0,3.146l2.511,2.511Z" transform="translate(-36.815 -231.73)" fill="url(#linear-gradient-29)"/>
</svg>
