<svg xmlns="http://www.w3.org/2000/svg" width="80" height="80" viewBox="0 0 80 80">
  <g id="medicines" transform="translate(0)">
    <path id="Path_2" data-name="Path 2" d="M.519,46.462A40.005,40.005,0,0,1,71.955,15.936,39.6,39.6,0,0,1,80,40a40.281,40.281,0,0,1-.519,6.458,1.624,1.624,0,0,1-1.6,1.369H2.118a1.621,1.621,0,0,1-1.6-1.365Z" transform="translate(0 0)" fill="#0a66ea"/>
    <path id="Path_3" data-name="Path 3" d="M82.248,297.025A40.007,40.007,0,0,1,17.4,321.552c-.3-.245.053-1.139-.238-1.392a39.383,39.383,0,0,1-6.523-7.587c-.265-.384-1.381-.085-1.632-.479A39.755,39.755,0,0,1,3.27,297.025Z" transform="translate(-2.759 -250.615)" fill="#0a4499"/>
    <path id="Path_4" data-name="Path 4" d="M176.688,1.562v31.25a1.562,1.562,0,0,1-1.562,1.563H163.563A1.562,1.562,0,0,1,162,32.812V1.562A1.562,1.562,0,0,1,163.563,0h11.563A1.562,1.562,0,0,1,176.688,1.562Z" transform="translate(-136.688 0)" fill="#ffb52d"/>
    <path id="Path_5" data-name="Path 5" d="M269.688,1.562v31.25a1.562,1.562,0,0,1-1.562,1.563H241.563A1.562,1.562,0,0,1,240,32.812V0h13.906l1.17.728,5.6.06L261.719,0h6.406A1.562,1.562,0,0,1,269.688,1.562Z" transform="translate(-202.5)" fill="#ffc14f"/>
    <path id="Path_6" data-name="Path 6" d="M279.5,232.938H243.563A1.562,1.562,0,0,1,242,231.375V203.563A1.562,1.562,0,0,1,243.563,202H279.5a1.562,1.562,0,0,1,1.563,1.563v27.812A1.562,1.562,0,0,1,279.5,232.938Z" transform="translate(-204.188 -170.438)" fill="#76b6fa"/>
    <path id="Path_7" data-name="Path 7" d="M371.505,232.938h-18.9a1.562,1.562,0,0,1-1.563-1.562V203.563A1.562,1.562,0,0,1,352.606,202h18.9a1.562,1.562,0,0,1,1.563,1.563v27.812A1.562,1.562,0,0,1,371.505,232.938Z" transform="translate(-296.193 -170.438)" fill="#86befb"/>
    <path id="Path_8" data-name="Path 8" d="M347.081,230.9a3.54,3.54,0,1,1-3.54-3.54A3.54,3.54,0,0,1,347.081,230.9Zm8.851,3.54a3.54,3.54,0,1,0-3.54-3.54A3.54,3.54,0,0,0,355.931,234.442Zm-12.391,8.851a3.54,3.54,0,1,0,3.54,3.54A3.54,3.54,0,0,0,343.54,243.292Zm12.391,0a3.54,3.54,0,1,0,3.54,3.54A3.54,3.54,0,0,0,355.931,243.292Z" transform="translate(-286.875 -191.836)" fill="#fff5f5"/>
    <path id="Path_9" data-name="Path 9" d="M294.813,296.781a.781.781,0,0,1-.781.781h-31.25a.781.781,0,0,1,0-1.562h31.25A.781.781,0,0,1,294.813,296.781Z" transform="translate(-221.063 -249.75)" fill="#55a4f9"/>
    <path id="Path_10" data-name="Path 10" d="M336.813,0V16.647a.781.781,0,0,1-.781.781h-6.25a.781.781,0,0,1-.781-.781V0Z" transform="translate(-277.594 0)" fill="#ffe7c0"/>
    <path id="Path_11" data-name="Path 11" d="M341.4,15.492a.781.781,0,0,1-.781.781h-1.3v1.3a.781.781,0,1,1-1.562,0v-1.3h-1.3a.781.781,0,0,1,0-1.562h1.3v-1.3a.781.781,0,1,1,1.563,0v1.3h1.3A.781.781,0,0,1,341.4,15.492Z" transform="translate(-283.218 -10.654)" fill="#f44545"/>
    <path id="Path_12" data-name="Path 12" d="M341.4,63.468a.781.781,0,0,1-.781.781h-4.167a.781.781,0,0,1,0-1.562h4.167A.781.781,0,0,1,341.4,63.468Zm-1.16,1.866h-3.409a.8.8,0,0,0,0,1.563h3.409a.8.8,0,0,0,0-1.562Z" transform="translate(-283.218 -52.892)" fill="#ff9d60"/>
    <path id="Path_13" data-name="Path 13" d="M180.6,226.063H161.563A1.562,1.562,0,0,1,160,224.5V193.563A1.562,1.562,0,0,1,161.563,192H180.6a1.562,1.562,0,0,1,1.563,1.563V224.5A1.562,1.562,0,0,1,180.6,226.063Z" transform="translate(-135 -162)" fill="#169b62"/>
    <path id="Path_14" data-name="Path 14" d="M282.079,226.063h-3.608a1.562,1.562,0,0,1-1.562-1.562V193.563A1.562,1.562,0,0,1,278.471,192h3.608a1.562,1.562,0,0,1,1.563,1.563V224.5A1.562,1.562,0,0,1,282.079,226.063Z" transform="translate(-233.642 -162)" fill="#1ab975"/>
    <path id="Path_15" data-name="Path 15" d="M212.813,392.076a3.906,3.906,0,0,1-3.906,3.906h-25a3.906,3.906,0,1,1,0-7.812h25A3.906,3.906,0,0,1,212.813,392.076Z" transform="translate(-151.875 -327.519)" fill="#ffcd71"/>
    <path id="Path_16" data-name="Path 16" d="M82.585,109.375h-9.46A3.125,3.125,0,0,1,70,106.25v-3.125A3.125,3.125,0,0,1,73.125,100h9.46a3.125,3.125,0,0,1,3.125,3.125v3.125A3.125,3.125,0,0,1,82.585,109.375Z" transform="translate(-59.063 -84.375)" fill="#d63030"/>
    <path id="Path_17" data-name="Path 17" d="M133.415,109.375H124.21a3.125,3.125,0,0,1-3.125-3.125v-3.125A3.125,3.125,0,0,1,124.21,100h9.205a3.125,3.125,0,0,1,3.125,3.125v3.125A3.125,3.125,0,0,1,133.415,109.375Z" transform="translate(-102.166 -84.375)" fill="#f44545"/>
    <path id="Path_18" data-name="Path 18" d="M72.813,156.25v35a6.25,6.25,0,0,1-6.25,6.25H48.393A40.212,40.212,0,0,1,40,188.041v-3.666l.728-.974.239-22.859L40,159.375V156.25A6.25,6.25,0,0,1,46.25,150H66.563A6.25,6.25,0,0,1,72.813,156.25Z" transform="translate(-33.75 -126.563)" fill="#c8e2fd"/>
    <path id="Path_19" data-name="Path 19" d="M100.715,190a12.651,12.651,0,0,1-12.651-12.651v-21.1a6.25,6.25,0,0,1,6.25-6.25h12.8a6.25,6.25,0,0,1,6.25,6.25v21.1A12.651,12.651,0,0,1,100.715,190Z" transform="translate(-74.304 -126.563)" fill="#e9f3fe"/>
    <path id="Path_20" data-name="Path 20" d="M269.375,398.951v3.125a.781.781,0,0,1-.781.781h-7.812a.781.781,0,0,1-.781-.781v-3.125a.781.781,0,0,1,.781-.781h7.813A.781.781,0,0,1,269.375,398.951Z" transform="translate(-219.375 -335.956)" fill="#f29500"/>
    <path id="Path_21" data-name="Path 21" d="M49.776,235H40V210h7.645a3.27,3.27,0,0,1,3.27,3.27v20.592A1.139,1.139,0,0,1,49.776,235Z" transform="translate(-33.75 -177.188)" fill="#ffc14f"/>
    <path id="Path_22" data-name="Path 22" d="M99.3,210.781v23.438a.781.781,0,0,1-.781.781h-8.33a12.593,12.593,0,0,1-2.129-7.026V210H98.523A.781.781,0,0,1,99.3,210.781Z" transform="translate(-74.304 -177.188)" fill="#ffcd71"/>
    <path id="Path_23" data-name="Path 23" d="M70,240.781a.781.781,0,0,1,.781-.781h9.375a.781.781,0,1,1,0,1.563H70.781A.781.781,0,0,1,70,240.781Zm2.344,7.031h7.813a.781.781,0,1,0,0-1.562H72.344a.781.781,0,0,0,0,1.563Zm4.688,9.375h3.125a.781.781,0,1,0,0-1.563H77.031a.781.781,0,1,0,0,1.563Zm-1.562-12.5h4.688a.781.781,0,1,0,0-1.562H75.469a.781.781,0,0,0,0,1.563Z" transform="translate(-59.063 -202.5)" fill="#ffa90b"/>
    <path id="Path_24" data-name="Path 24" d="M291.25,462.858h-3.906a2.344,2.344,0,0,1,0-4.687h3.906a2.344,2.344,0,0,1,0,4.688Z" transform="translate(-240.469 -386.581)" fill="#fff5f5"/>
    <path id="Path_25" data-name="Path 25" d="M267.094,462.858h-3.75a2.344,2.344,0,0,1,0-4.687h3.75Z" transform="translate(-220.219 -386.581)" fill="#f44545"/>
  </g>
</svg>
