<svg xmlns="http://www.w3.org/2000/svg" width="40.881" height="48" viewBox="0 0 40.881 48">
  <g id="hot-food1" transform="translate(-88 -18.343)">
    <path id="Path_153" data-name="Path 153" d="M200,440h11.447v4.906H200Z" transform="translate(-100.553 -378.563)" fill="#306bb4"/>
    <path id="Path_154" data-name="Path 154" d="M288,440h2.453v4.906H288Z" transform="translate(-179.56 -378.563)" fill="#3c9ddc"/>
    <path id="Path_155" data-name="Path 155" d="M104,264h31.069v8.915a10.708,10.708,0,0,1-10.708,10.708h-9.653A10.708,10.708,0,0,1,104,272.915Z" transform="translate(-14.365 -220.55)" fill="#efad15"/>
    <path id="Path_156" data-name="Path 156" d="M127.632,280.352h-9.653a10.708,10.708,0,0,1-10.708-10.708V264H104v8.915a10.708,10.708,0,0,0,10.708,10.708h9.653a10.7,10.7,0,0,0,9.029-4.949A10.659,10.659,0,0,1,127.632,280.352Z" transform="translate(-14.365 -220.55)" fill="#cf7e2c"/>
    <path id="Path_157" data-name="Path 157" d="M93.613,39.122l-.409-.409a3.709,3.709,0,0,1,0-5.244,2.073,2.073,0,0,0,0-2.932L91.57,28.9a3.708,3.708,0,0,1,0-5.244,2.076,2.076,0,0,0,0-2.932L90.343,19.5,91.5,18.343l1.226,1.226a3.708,3.708,0,0,1,0,5.244,2.075,2.075,0,0,0,0,2.932l1.635,1.635a3.713,3.713,0,0,1,0,5.244,2.073,2.073,0,0,0,0,2.932l.409.409Z" transform="translate(-2.104)" fill="#66c3ea"/>
    <path id="Path_158" data-name="Path 158" d="M218.577,67.852l-.409-.409a3.712,3.712,0,0,1,0-5.244,2.076,2.076,0,0,0,0-2.932l-1.635-1.635a3.713,3.713,0,0,1,0-5.244l2.044-2.044,1.156,1.156-2.044,2.044a2.073,2.073,0,0,0,0,2.932l1.635,1.635a3.713,3.713,0,0,1,0,5.244,2.073,2.073,0,0,0,0,2.932l.409.409Z" transform="translate(-114.423 -28.73)" fill="#66c3ea"/>
    <path id="Path_159" data-name="Path 159" d="M296,38.308a4.935,4.935,0,0,0,1.446,3.49l.423.423a4.786,4.786,0,0,0,3.385,1.4h.051a4.939,4.939,0,0,0,3.5-1.445l.513-.512a7.79,7.79,0,0,0,2.13-7.036l7.419-6.685a2.257,2.257,0,1,0-3.186-3.186l-6.686,7.419a7.791,7.791,0,0,0-7.036,2.13l-.512.512A4.935,4.935,0,0,0,296,38.308Z" transform="translate(-186.742 -5.079)" fill="#c6de3a"/>
    <path id="Path_160" data-name="Path 160" d="M333.98,24.026a2.257,2.257,0,0,1-.241,3.124l-7.419,6.685a7.79,7.79,0,0,1-2.13,7.036l-.512.512a4.941,4.941,0,0,1-3.5,1.445h-.051a4.783,4.783,0,0,1-1.283-.177,4.785,4.785,0,0,0,2.918.994h.051a4.94,4.94,0,0,0,3.5-1.445l.513-.512a7.79,7.79,0,0,0,2.13-7.036l7.418-6.685a2.257,2.257,0,0,0-1.394-3.941Z" transform="translate(-207.251 -5.102)" fill="#9fc83e"/>
    <path id="Path_161" data-name="Path 161" d="M89.635,248H120.7a1.635,1.635,0,1,1,0,3.27H89.635a1.635,1.635,0,1,1,0-3.27Z" transform="translate(0 -206.186)" fill="#fec941"/>
    <path id="Path_162" data-name="Path 162" d="M171.937,148.493l-1.635-1.635a3.134,3.134,0,0,1,0-4.427,1.5,1.5,0,0,0,0-2.114l-.818-.818,1.156-1.156.818.818a3.13,3.13,0,0,1,0,4.427,1.5,1.5,0,0,0,0,2.114l1.635,1.635Z" transform="translate(-73.069 -107.736)" fill="#66c3ea"/>
    <path id="Path_163" data-name="Path 163" d="M123.514,322.388a7.734,7.734,0,0,0-7.958,0,7.734,7.734,0,0,1-8.269-.2L104,320v3.191A10.708,10.708,0,0,0,114.708,333.9h9.653a10.708,10.708,0,0,0,10.708-10.708V320l-3.286,2.191A7.734,7.734,0,0,1,123.514,322.388Z" transform="translate(-14.365 -270.827)" fill="#306bb4"/>
    <path id="Path_164" data-name="Path 164" d="M127.632,330.629h-9.653a10.713,10.713,0,0,1-10.429-8.271q-.133-.081-.263-.167L104,320v3.191A10.708,10.708,0,0,0,114.708,333.9h9.653a10.7,10.7,0,0,0,9.029-4.949A10.661,10.661,0,0,1,127.632,330.629Z" transform="translate(-14.365 -270.827)" fill="#0a4ea9"/>
  </g>
</svg>
